<svg xmlns="http://www.w3.org/2000/svg" xmlns:xlink="http://www.w3.org/1999/xlink" width="184" zoomAndPan="magnify" viewBox="0 0 138 58.499998" height="78" preserveAspectRatio="xMidYMid meet" version="1.0"><defs><g/></defs><g fill="#012649" fill-opacity="1"><g transform="translate(10.464035, 34.606209)"><g><path d="M 0.859375 -0.15625 C 0.367188 -0.15625 0.0820312 -0.285156 0 -0.546875 C 0 -0.816406 0.90625 -2.039062 2.71875 -4.21875 C 4.539062 -6.394531 6.539062 -8.753906 8.71875 -11.296875 C 10.894531 -13.847656 12.890625 -16.441406 14.703125 -19.078125 C 16.523438 -21.710938 17.4375 -23.566406 17.4375 -24.640625 C 17.4375 -25.316406 17.09375 -25.65625 16.40625 -25.65625 C 15.257812 -25.65625 14.050781 -25.351562 12.78125 -24.75 C 11.507812 -24.15625 10.316406 -23.375 9.203125 -22.40625 C 8.097656 -21.445312 7.023438 -20.375 5.984375 -19.1875 C 4.953125 -18 4.078125 -16.828125 3.359375 -15.671875 C 1.734375 -13.128906 0.921875 -11.28125 0.921875 -10.125 C 0.921875 -9.507812 1.175781 -9.203125 1.6875 -9.203125 C 2.382812 -9.203125 3.515625 -9.789062 5.078125 -10.96875 C 6.640625 -12.15625 8.023438 -13.34375 9.234375 -14.53125 L 11.03125 -16.265625 C 11.070312 -16.304688 11.140625 -16.328125 11.234375 -16.328125 C 11.335938 -16.328125 11.390625 -16.296875 11.390625 -16.234375 L 11.328125 -16.109375 C 11.128906 -15.921875 10.867188 -15.65625 10.546875 -15.3125 C 10.222656 -14.976562 9.601562 -14.394531 8.6875 -13.5625 C 7.78125 -12.726562 6.929688 -11.988281 6.140625 -11.34375 C 5.347656 -10.695312 4.492188 -10.109375 3.578125 -9.578125 C 2.671875 -9.046875 1.953125 -8.78125 1.421875 -8.78125 C 0.660156 -8.78125 0.28125 -9.238281 0.28125 -10.15625 C 0.28125 -11.082031 0.550781 -12.207031 1.09375 -13.53125 C 1.632812 -14.851562 2.414062 -16.234375 3.4375 -17.671875 C 4.46875 -19.109375 5.617188 -20.457031 6.890625 -21.71875 C 8.171875 -22.988281 9.644531 -24.035156 11.3125 -24.859375 C 12.988281 -25.691406 14.648438 -26.109375 16.296875 -26.109375 C 16.722656 -26.109375 17.132812 -25.953125 17.53125 -25.640625 C 17.9375 -25.335938 18.140625 -24.875 18.140625 -24.25 C 18.140625 -23.625 17.910156 -22.800781 17.453125 -21.78125 C 17.003906 -20.769531 16.320312 -19.585938 15.40625 -18.234375 C 14.5 -16.878906 13.660156 -15.65625 12.890625 -14.5625 C 12.117188 -13.476562 11.09375 -12.15625 9.8125 -10.59375 C 8.53125 -9.03125 7.632812 -7.945312 7.125 -7.34375 C 6.625 -6.738281 5.878906 -5.84375 4.890625 -4.65625 C 4.910156 -4.632812 5.003906 -4.691406 5.171875 -4.828125 C 14.179688 -12.984375 19.265625 -17.578125 20.421875 -18.609375 C 21.585938 -19.648438 22.21875 -20.222656 22.3125 -20.328125 C 22.40625 -20.429688 22.472656 -20.503906 22.515625 -20.546875 C 22.691406 -20.722656 22.910156 -20.8125 23.171875 -20.8125 C 23.429688 -20.8125 23.5625 -20.679688 23.5625 -20.421875 C 23.5625 -19.785156 22.632812 -18.175781 20.78125 -15.59375 C 18.9375 -13.019531 17.09375 -10.554688 15.25 -8.203125 C 13.414062 -5.859375 12.5 -4.644531 12.5 -4.5625 L 12.53125 -4.53125 C 13.820312 -5.65625 16.46875 -8.082031 20.46875 -11.8125 C 24.476562 -15.539062 27.976562 -18.757812 30.96875 -21.46875 C 33.96875 -24.175781 35.632812 -25.53125 35.96875 -25.53125 C 36.195312 -25.53125 36.3125 -25.382812 36.3125 -25.09375 C 36.3125 -24.519531 35.832031 -23.503906 34.875 -22.046875 C 33.914062 -20.585938 32.195312 -18.289062 29.71875 -15.15625 C 29.613281 -15.03125 27.898438 -12.984375 24.578125 -9.015625 C 17.265625 -0.273438 13.609375 4.769531 13.609375 6.125 C 13.609375 6.207031 13.675781 6.25 13.8125 6.25 C 13.945312 6.25 14.472656 6.007812 15.390625 5.53125 C 16.316406 5.0625 16.957031 4.664062 17.3125 4.34375 C 17.675781 4.03125 17.890625 3.875 17.953125 3.875 C 18.015625 3.875 18.046875 3.921875 18.046875 4.015625 C 18.046875 4.109375 18.023438 4.175781 17.984375 4.21875 C 17.753906 4.507812 17.039062 4.992188 15.84375 5.671875 C 14.644531 6.347656 13.882812 6.6875 13.5625 6.6875 C 13.25 6.6875 13.09375 6.550781 13.09375 6.28125 C 13.09375 4.945312 14.226562 2.597656 16.5 -0.765625 C 20.050781 -6.066406 24.351562 -11.507812 29.40625 -17.09375 C 30.039062 -17.8125 31.210938 -19.226562 32.921875 -21.34375 C 34.640625 -23.457031 35.5 -24.597656 35.5 -24.765625 C 35.5 -24.804688 35.488281 -24.828125 35.46875 -24.828125 C 35.332031 -24.828125 31.421875 -21.296875 23.734375 -14.234375 C 16.054688 -7.171875 11.082031 -2.5625 8.8125 -0.40625 C 8.5625 -0.15625 8.320312 -0.03125 8.09375 -0.03125 C 7.476562 -0.03125 7.171875 -0.101562 7.171875 -0.25 C 7.171875 -0.394531 7.316406 -0.648438 7.609375 -1.015625 C 7.910156 -1.390625 9.5 -3.332031 12.375 -6.84375 C 19.132812 -15.113281 22.515625 -19.453125 22.515625 -19.859375 L 22.484375 -19.890625 C 22.296875 -19.804688 19.523438 -17.332031 14.171875 -12.46875 C 6.347656 -5.40625 1.910156 -1.300781 0.859375 -0.15625 Z M 0.859375 -0.15625 "/></g></g></g><g fill="#012649" fill-opacity="1"><g transform="translate(32.95424, 34.606209)"><g><path d="M 10.4375 -3.78125 L 10.46875 -3.359375 C 7.0625 -1.097656 4.988281 0.03125 4.25 0.03125 C 4.125 0.03125 4.0625 -0.0390625 4.0625 -0.1875 C 4.0625 -0.632812 4.226562 -1.269531 4.5625 -2.09375 L 4.71875 -2.53125 C 4.71875 -2.570312 4.679688 -2.59375 4.609375 -2.59375 C 4.535156 -2.59375 3.921875 -2.171875 2.765625 -1.328125 C 1.617188 -0.484375 0.867188 -0.0625 0.515625 -0.0625 C 0.171875 -0.0625 0 -0.378906 0 -1.015625 C 0 -2.765625 1 -4.472656 3 -6.140625 C 5 -7.816406 7.40625 -8.65625 10.21875 -8.65625 C 10.46875 -8.65625 10.59375 -8.550781 10.59375 -8.34375 C 10.59375 -8.132812 9.597656 -6.898438 7.609375 -4.640625 C 5.617188 -2.390625 4.625 -1.035156 4.625 -0.578125 C 4.625 -0.484375 4.6875 -0.4375 4.8125 -0.4375 C 4.945312 -0.4375 5.488281 -0.710938 6.4375 -1.265625 C 7.382812 -1.816406 8.285156 -2.367188 9.140625 -2.921875 Z M 5.390625 -3.75 C 5.753906 -4.019531 6.453125 -4.742188 7.484375 -5.921875 C 8.523438 -7.109375 9.046875 -7.800781 9.046875 -8 C 9.046875 -8.082031 8.957031 -8.125 8.78125 -8.125 C 7.8125 -8.125 6.679688 -7.671875 5.390625 -6.765625 C 4.097656 -5.867188 3.003906 -4.847656 2.109375 -3.703125 C 1.210938 -2.566406 0.765625 -1.648438 0.765625 -0.953125 C 0.765625 -0.828125 0.828125 -0.765625 0.953125 -0.765625 C 1.078125 -0.765625 1.28125 -0.84375 1.5625 -1 C 1.851562 -1.15625 2.203125 -1.375 2.609375 -1.65625 C 3.023438 -1.945312 3.378906 -2.195312 3.671875 -2.40625 C 4.691406 -3.164062 5.265625 -3.613281 5.390625 -3.75 Z M 5.390625 -3.75 "/></g></g></g><g fill="#012649" fill-opacity="1"><g transform="translate(42.311938, 34.606209)"><g><path d="M 10.71875 -4.71875 L 10.96875 -4.4375 C 10 -3.84375 9.207031 -3.34375 8.59375 -2.9375 C 7.976562 -2.539062 7.515625 -2.34375 7.203125 -2.34375 C 6.734375 -2.34375 6.5 -2.546875 6.5 -2.953125 C 6.5 -3.242188 6.660156 -3.828125 6.984375 -4.703125 C 7.316406 -5.585938 7.546875 -6.207031 7.671875 -6.5625 L 7.578125 -6.65625 C 7.492188 -6.65625 7.398438 -6.613281 7.296875 -6.53125 C 5.160156 -4.820312 3.78125 -3.671875 3.15625 -3.078125 C 2.53125 -2.484375 1.925781 -1.847656 1.34375 -1.171875 C 0.757812 -0.492188 0.441406 -0.125 0.390625 -0.0625 C 0.335938 0 0.300781 0.0390625 0.28125 0.0625 C 0.21875 0.125 0.00390625 0.15625 -0.359375 0.15625 C -0.734375 0.15625 -0.921875 0.125 -0.921875 0.0625 C -0.878906 0 -0.613281 -0.296875 -0.125 -0.828125 C 1.0625 -2.117188 2.128906 -3.351562 3.078125 -4.53125 L 2.15625 -4 C 1.1875 -3.40625 0.476562 -2.960938 0.03125 -2.671875 L -0.09375 -3.015625 L 1.90625 -4.28125 C 2.625 -4.75 3.238281 -5.234375 3.75 -5.734375 C 4.269531 -6.242188 4.625 -6.65625 4.8125 -6.96875 C 5.007812 -7.289062 5.179688 -7.554688 5.328125 -7.765625 C 5.472656 -7.984375 5.609375 -8.09375 5.734375 -8.09375 C 5.867188 -8.09375 6.070312 -8.015625 6.34375 -7.859375 C 6.34375 -7.648438 6.171875 -7.28125 5.828125 -6.75 C 5.492188 -6.226562 5.160156 -5.753906 4.828125 -5.328125 L 4.3125 -4.71875 C 4.3125 -4.675781 4.320312 -4.65625 4.34375 -4.65625 C 4.40625 -4.65625 4.476562 -4.691406 4.5625 -4.765625 C 4.644531 -4.847656 5 -5.144531 5.625 -5.65625 C 6.25 -6.175781 6.796875 -6.617188 7.265625 -6.984375 C 7.734375 -7.359375 8.265625 -7.710938 8.859375 -8.046875 C 9.460938 -8.390625 9.898438 -8.5625 10.171875 -8.5625 C 10.453125 -8.5625 10.59375 -8.5 10.59375 -8.375 C 10.59375 -8.207031 10.078125 -7.847656 9.046875 -7.296875 C 8.804688 -7.171875 8.445312 -6.5625 7.96875 -5.46875 C 7.5 -4.382812 7.265625 -3.585938 7.265625 -3.078125 C 7.265625 -2.972656 7.363281 -2.921875 7.5625 -2.921875 C 7.757812 -2.921875 8.15625 -3.109375 8.75 -3.484375 Z M 10.71875 -4.71875 "/></g></g></g><g fill="#012649" fill-opacity="1"><g transform="translate(50.400791, 34.606209)"><g><path d="M 5.640625 -5.578125 C 5.640625 -5.722656 5.691406 -5.890625 5.796875 -6.078125 C 5.910156 -6.273438 6.019531 -6.375 6.125 -6.375 C 6.226562 -6.375 6.320312 -6.300781 6.40625 -6.15625 C 7.59375 -7.082031 8.1875 -7.769531 8.1875 -8.21875 C 8.1875 -8.28125 8.132812 -8.3125 8.03125 -8.3125 C 7.351562 -8.3125 6.421875 -7.832031 5.234375 -6.875 C 4.046875 -5.925781 2.992188 -4.832031 2.078125 -3.59375 C 1.160156 -2.363281 0.703125 -1.390625 0.703125 -0.671875 C 0.703125 -0.472656 0.796875 -0.375 0.984375 -0.375 C 1.765625 -0.375 3.304688 -1.09375 5.609375 -2.53125 L 7.515625 -3.78125 L 7.546875 -3.359375 C 7.015625 -3.023438 6.410156 -2.644531 5.734375 -2.21875 C 3.285156 -0.695312 1.585938 0.0625 0.640625 0.0625 C 0.210938 0.0625 0 -0.378906 0 -1.265625 C 0 -2.148438 0.429688 -3.179688 1.296875 -4.359375 C 2.160156 -5.535156 3.25 -6.554688 4.5625 -7.421875 C 5.875 -8.285156 7.070312 -8.71875 8.15625 -8.71875 C 8.570312 -8.71875 8.78125 -8.550781 8.78125 -8.21875 C 8.78125 -7.75 8.414062 -7.132812 7.6875 -6.375 C 6.957031 -5.613281 6.429688 -5.234375 6.109375 -5.234375 C 5.796875 -5.234375 5.640625 -5.347656 5.640625 -5.578125 Z M 5.640625 -5.578125 "/></g></g></g><g fill="#012649" fill-opacity="1"><g transform="translate(56.840161, 34.606209)"><g><path d="M 8 -8.15625 C 8 -8.21875 7.953125 -8.25 7.859375 -8.25 C 7.296875 -8.25 6.410156 -7.75 5.203125 -6.75 C 3.992188 -5.757812 2.945312 -4.671875 2.0625 -3.484375 C 3.113281 -3.828125 4.363281 -4.585938 5.8125 -5.765625 C 7.269531 -6.953125 8 -7.75 8 -8.15625 Z M 0.671875 -0.671875 C 0.671875 -0.390625 0.773438 -0.25 0.984375 -0.25 C 1.234375 -0.25 1.800781 -0.421875 2.6875 -0.765625 C 3.582031 -1.117188 4.316406 -1.46875 4.890625 -1.8125 L 8 -3.78125 L 8.03125 -3.359375 C 5.800781 -1.878906 4.140625 -0.9375 3.046875 -0.53125 C 1.960938 -0.132812 1.242188 0.0625 0.890625 0.0625 C 0.296875 0.0625 0 -0.304688 0 -1.046875 C 0 -2.035156 0.359375 -3.023438 1.078125 -4.015625 C 1.796875 -5.015625 2.632812 -5.832031 3.59375 -6.46875 C 4.5625 -7.101562 5.492188 -7.617188 6.390625 -8.015625 C 7.285156 -8.421875 7.96875 -8.625 8.4375 -8.625 C 8.90625 -8.625 9.140625 -8.46875 9.140625 -8.15625 C 9.140625 -7.375 8.210938 -6.421875 6.359375 -5.296875 C 4.503906 -4.171875 2.96875 -3.429688 1.75 -3.078125 C 1.03125 -2.035156 0.671875 -1.234375 0.671875 -0.671875 Z M 0.671875 -0.671875 "/></g></g></g><g fill="#012649" fill-opacity="1"><g transform="translate(63.755338, 34.606209)"><g><path d="M 18.203125 -20.875 C 17.566406 -20.875 15.226562 -18.84375 11.1875 -14.78125 C 7.15625 -10.71875 4.09375 -7.238281 2 -4.34375 C 3.945312 -5.820312 7.144531 -8.722656 11.59375 -13.046875 C 16.039062 -17.367188 18.265625 -19.945312 18.265625 -20.78125 C 18.265625 -20.820312 18.242188 -20.851562 18.203125 -20.875 Z M 18.8125 -21.4375 C 19 -21.4375 19.09375 -21.320312 19.09375 -21.09375 C 19.09375 -20.082031 16.820312 -17.378906 12.28125 -12.984375 C 7.75 -8.597656 4.148438 -5.472656 1.484375 -3.609375 C 0.554688 -2.285156 0.09375 -1.328125 0.09375 -0.734375 C 0.09375 -0.535156 0.132812 -0.4375 0.21875 -0.4375 C 1.082031 -0.4375 2.640625 -1.132812 4.890625 -2.53125 L 6.78125 -3.78125 L 6.8125 -3.359375 C 6.289062 -3.023438 5.691406 -2.644531 5.015625 -2.21875 C 2.554688 -0.695312 0.851562 0.0625 -0.09375 0.0625 C -0.34375 0.0625 -0.46875 -0.140625 -0.46875 -0.546875 C -0.46875 -1.765625 0.382812 -3.570312 2.09375 -5.96875 C 3.800781 -8.375 5.757812 -10.703125 7.96875 -12.953125 C 10.1875 -15.203125 12.359375 -17.175781 14.484375 -18.875 C 16.609375 -20.582031 18.050781 -21.4375 18.8125 -21.4375 Z M 18.8125 -21.4375 "/></g></g></g><g fill="#012649" fill-opacity="1"><g transform="translate(69.496838, 34.606209)"><g/></g></g><g fill="#012649" fill-opacity="1"><g transform="translate(76.475456, 34.606209)"><g><path d="M 13.859375 -13.390625 C 13.941406 -13.597656 14.03125 -13.703125 14.125 -13.703125 C 14.21875 -13.703125 14.257812 -13.625 14.25 -13.46875 C 14.238281 -13.3125 14.203125 -13.070312 14.140625 -12.75 C 13.953125 -12.007812 13.859375 -11.394531 13.859375 -10.90625 C 13.859375 -10.019531 14.195312 -9.578125 14.875 -9.578125 C 15.976562 -9.578125 17.625 -10.414062 19.8125 -12.09375 C 22 -13.78125 23.972656 -15.6875 25.734375 -17.8125 C 27.503906 -19.9375 28.390625 -21.554688 28.390625 -22.671875 C 28.390625 -23.546875 27.804688 -23.984375 26.640625 -23.984375 C 24.992188 -23.984375 22.992188 -23.367188 20.640625 -22.140625 C 18.296875 -20.910156 15.972656 -19.335938 13.671875 -17.421875 C 11.367188 -15.515625 9.207031 -13.488281 7.1875 -11.34375 C 5.164062 -9.195312 3.523438 -7.09375 2.265625 -5.03125 C 1.003906 -2.96875 0.375 -1.289062 0.375 0 C 0.375 0.164062 0.453125 0.25 0.609375 0.25 C 1.210938 0.25 2.550781 -0.976562 4.625 -3.4375 C 6.695312 -5.90625 8.691406 -8.519531 10.609375 -11.28125 C 12.523438 -14.039062 13.660156 -15.882812 14.015625 -16.8125 C 14.078125 -16.957031 14.140625 -17.03125 14.203125 -17.03125 C 14.441406 -17.03125 14.5625 -16.738281 14.5625 -16.15625 C 14.5625 -15.570312 14.507812 -15.207031 14.40625 -15.0625 C 14.164062 -14.425781 13.695312 -13.570312 13 -12.5 C 11.375 -9.9375 9.0625 -7.097656 6.0625 -3.984375 C 3.070312 -0.878906 1.21875 0.671875 0.5 0.671875 C 0.164062 0.671875 0 0.445312 0 0 C 0 -1.644531 0.992188 -3.867188 2.984375 -6.671875 C 4.972656 -9.472656 7.34375 -12.171875 10.09375 -14.765625 C 12.851562 -17.359375 15.800781 -19.601562 18.9375 -21.5 C 22.082031 -23.40625 24.691406 -24.359375 26.765625 -24.359375 C 28.546875 -24.359375 29.4375 -23.722656 29.4375 -22.453125 C 29.4375 -21.460938 28.882812 -20.1875 27.78125 -18.625 C 26.6875 -17.070312 25.363281 -15.585938 23.8125 -14.171875 C 22.269531 -12.753906 20.585938 -11.539062 18.765625 -10.53125 C 16.953125 -9.519531 15.390625 -9.015625 14.078125 -9.015625 C 13.359375 -9.015625 13 -9.4375 13 -10.28125 C 13 -11 13.210938 -11.863281 13.640625 -12.875 Z M 13.859375 -13.390625 "/></g></g></g><g fill="#012649" fill-opacity="1"><g transform="translate(87.926741, 34.606209)"><g><path d="M 10.71875 -4.71875 L 10.96875 -4.4375 C 10 -3.84375 9.207031 -3.34375 8.59375 -2.9375 C 7.976562 -2.539062 7.515625 -2.34375 7.203125 -2.34375 C 6.734375 -2.34375 6.5 -2.546875 6.5 -2.953125 C 6.5 -3.242188 6.660156 -3.828125 6.984375 -4.703125 C 7.316406 -5.585938 7.546875 -6.207031 7.671875 -6.5625 L 7.578125 -6.65625 C 7.492188 -6.65625 7.398438 -6.613281 7.296875 -6.53125 C 5.160156 -4.820312 3.78125 -3.671875 3.15625 -3.078125 C 2.53125 -2.484375 1.925781 -1.847656 1.34375 -1.171875 C 0.757812 -0.492188 0.441406 -0.125 0.390625 -0.0625 C 0.335938 0 0.300781 0.0390625 0.28125 0.0625 C 0.21875 0.125 0.00390625 0.15625 -0.359375 0.15625 C -0.734375 0.15625 -0.921875 0.125 -0.921875 0.0625 C -0.878906 0 -0.613281 -0.296875 -0.125 -0.828125 C 1.0625 -2.117188 2.128906 -3.351562 3.078125 -4.53125 L 2.15625 -4 C 1.1875 -3.40625 0.476562 -2.960938 0.03125 -2.671875 L -0.09375 -3.015625 L 1.90625 -4.28125 C 2.625 -4.75 3.238281 -5.234375 3.75 -5.734375 C 4.269531 -6.242188 4.625 -6.65625 4.8125 -6.96875 C 5.007812 -7.289062 5.179688 -7.554688 5.328125 -7.765625 C 5.472656 -7.984375 5.609375 -8.09375 5.734375 -8.09375 C 5.867188 -8.09375 6.070312 -8.015625 6.34375 -7.859375 C 6.34375 -7.648438 6.171875 -7.28125 5.828125 -6.75 C 5.492188 -6.226562 5.160156 -5.753906 4.828125 -5.328125 L 4.3125 -4.71875 C 4.3125 -4.675781 4.320312 -4.65625 4.34375 -4.65625 C 4.40625 -4.65625 4.476562 -4.691406 4.5625 -4.765625 C 4.644531 -4.847656 5 -5.144531 5.625 -5.65625 C 6.25 -6.175781 6.796875 -6.617188 7.265625 -6.984375 C 7.734375 -7.359375 8.265625 -7.710938 8.859375 -8.046875 C 9.460938 -8.390625 9.898438 -8.5625 10.171875 -8.5625 C 10.453125 -8.5625 10.59375 -8.5 10.59375 -8.375 C 10.59375 -8.207031 10.078125 -7.847656 9.046875 -7.296875 C 8.804688 -7.171875 8.445312 -6.5625 7.96875 -5.46875 C 7.5 -4.382812 7.265625 -3.585938 7.265625 -3.078125 C 7.265625 -2.972656 7.363281 -2.921875 7.5625 -2.921875 C 7.757812 -2.921875 8.15625 -3.109375 8.75 -3.484375 Z M 10.71875 -4.71875 "/></g></g></g><g fill="#012649" fill-opacity="1"><g transform="translate(96.015594, 34.606209)"><g><path d="M 7.546875 -7.140625 L 7.546875 -7.171875 C 7.128906 -6.953125 6.664062 -6.445312 6.15625 -5.65625 C 5.644531 -4.863281 5.347656 -4.179688 5.265625 -3.609375 C 6.785156 -5.179688 7.546875 -6.359375 7.546875 -7.140625 Z M 0.796875 -0.5 C 1.597656 -0.5 2.894531 -1.347656 4.6875 -3.046875 L 4.6875 -3.203125 C 4.6875 -3.859375 5.007812 -4.664062 5.65625 -5.625 C 6.300781 -6.59375 6.890625 -7.210938 7.421875 -7.484375 C 7.359375 -7.546875 7.273438 -7.578125 7.171875 -7.578125 C 6.390625 -7.578125 5.09375 -6.675781 3.28125 -4.875 C 1.476562 -3.082031 0.578125 -1.691406 0.578125 -0.703125 C 0.578125 -0.566406 0.648438 -0.5 0.796875 -0.5 Z M -0.1875 -0.953125 C -0.1875 -2.535156 0.722656 -4.113281 2.546875 -5.6875 C 4.378906 -7.269531 5.898438 -8.0625 7.109375 -8.0625 C 7.703125 -8.0625 8 -7.796875 8 -7.265625 C 8 -5.765625 7.191406 -4.265625 5.578125 -2.765625 C 5.703125 -2.722656 5.832031 -2.703125 5.96875 -2.703125 C 6.550781 -2.703125 7.40625 -3.070312 8.53125 -3.8125 L 8.6875 -3.484375 C 7.332031 -2.578125 6.304688 -2.125 5.609375 -2.125 C 5.335938 -2.125 5.140625 -2.175781 5.015625 -2.28125 C 4.191406 -1.601562 3.320312 -1.050781 2.40625 -0.625 C 1.5 -0.207031 0.835938 0 0.421875 0 C 0.015625 0 -0.1875 -0.316406 -0.1875 -0.953125 Z M -0.1875 -0.953125 "/></g></g></g><g fill="#012649" fill-opacity="1"><g transform="translate(103.374874, 34.606209)"><g><path d="M 5.265625 -6.84375 C 5.453125 -7.082031 5.671875 -7.378906 5.921875 -7.734375 C 6.179688 -8.097656 6.394531 -8.28125 6.5625 -8.28125 C 6.726562 -8.28125 6.910156 -8.117188 7.109375 -7.796875 C 7.109375 -7.421875 6.148438 -6.175781 4.234375 -4.0625 C 2.316406 -1.945312 1.359375 -0.796875 1.359375 -0.609375 C 1.359375 -0.566406 1.421875 -0.546875 1.546875 -0.546875 C 1.679688 -0.546875 2.425781 -0.976562 3.78125 -1.84375 C 6.613281 -3.65625 9.050781 -5.648438 11.09375 -7.828125 C 11.601562 -8.296875 12.050781 -8.53125 12.4375 -8.53125 C 12.457031 -8.53125 12.476562 -8.53125 12.5 -8.53125 C 12.894531 -8.507812 13.09375 -8.457031 13.09375 -8.375 L 13.0625 -8.3125 C 12.15625 -7.46875 10.800781 -6.039062 9 -4.03125 C 7.207031 -2.019531 6.3125 -0.832031 6.3125 -0.46875 C 6.3125 -0.382812 6.378906 -0.34375 6.515625 -0.34375 C 6.648438 -0.34375 8.09375 -1.210938 10.84375 -2.953125 L 12.140625 -3.78125 L 12.1875 -3.390625 C 11.925781 -3.222656 11.597656 -3.015625 11.203125 -2.765625 C 8.046875 -0.773438 6.203125 0.21875 5.671875 0.21875 C 5.484375 0.21875 5.390625 0.113281 5.390625 -0.09375 C 5.390625 -0.300781 5.648438 -0.898438 6.171875 -1.890625 C 6.691406 -2.890625 7.066406 -3.53125 7.296875 -3.8125 L 6.78125 -3.515625 C 3.59375 -1.234375 1.679688 -0.09375 1.046875 -0.09375 C 0.796875 -0.09375 0.671875 -0.234375 0.671875 -0.515625 C 0.671875 -0.804688 0.785156 -1.175781 1.015625 -1.625 C 1.242188 -2.082031 1.457031 -2.445312 1.65625 -2.71875 C 1.863281 -3 2.164062 -3.375 2.5625 -3.84375 C 2.96875 -4.320312 3.179688 -4.570312 3.203125 -4.59375 L 0.734375 -3.140625 L 0.640625 -3.484375 L 1.71875 -4.15625 C 3.550781 -5.34375 4.734375 -6.238281 5.265625 -6.84375 Z M 5.265625 -6.84375 "/></g></g></g><g fill="#012649" fill-opacity="1"><g transform="translate(114.413782, 34.606209)"><g><path d="M 1.109375 -3.359375 C 1.003906 -3.296875 0.878906 -3.210938 0.734375 -3.109375 L 0.640625 -3.484375 C 3.023438 -5.003906 4.96875 -6.191406 6.46875 -7.046875 L 7.328125 -7.546875 C 7.640625 -7.796875 7.988281 -8.09375 8.375 -8.4375 C 9.175781 -9.070312 9.597656 -9.378906 9.640625 -9.359375 C 9.742188 -9.359375 9.796875 -9.3125 9.796875 -9.21875 C 9.796875 -9.125 9.710938 -8.960938 9.546875 -8.734375 C 9.378906 -8.515625 9.140625 -8.253906 8.828125 -7.953125 C 8.523438 -7.660156 8.34375 -7.472656 8.28125 -7.390625 C 7.957031 -7.078125 7.429688 -6.066406 6.703125 -4.359375 C 5.972656 -2.660156 5.578125 -1.75 5.515625 -1.625 C 5.515625 -1.53125 5.539062 -1.484375 5.59375 -1.484375 C 5.644531 -1.484375 5.679688 -1.492188 5.703125 -1.515625 L 9.265625 -3.78125 L 9.296875 -3.359375 C 9.035156 -3.210938 8.609375 -2.945312 8.015625 -2.5625 C 7.429688 -2.1875 7.015625 -1.921875 6.765625 -1.765625 C 6.523438 -1.617188 6.171875 -1.40625 5.703125 -1.125 C 5.242188 -0.84375 4.882812 -0.632812 4.625 -0.5 C 4.375 -0.375 4.082031 -0.226562 3.75 -0.0625 C 2.875 0.1875 2.320312 0.3125 2.09375 0.3125 C 2.070312 0.3125 2.0625 0.3125 2.0625 0.3125 C 1.488281 0.3125 1.019531 0.144531 0.65625 -0.1875 C 0.300781 -0.53125 0.125 -0.921875 0.125 -1.359375 C 0.125 -1.804688 0.273438 -2.1875 0.578125 -2.5 C 0.890625 -2.820312 1.253906 -2.984375 1.671875 -2.984375 C 2.097656 -2.984375 2.3125 -2.8125 2.3125 -2.46875 C 2.3125 -2.28125 2.242188 -2.101562 2.109375 -1.9375 C 1.972656 -1.769531 1.800781 -1.6875 1.59375 -1.6875 C 1.394531 -1.6875 1.28125 -1.78125 1.25 -1.96875 C 1.21875 -2.15625 1.160156 -2.25 1.078125 -2.25 C 0.929688 -2.25 0.8125 -2.175781 0.71875 -2.03125 C 0.625 -1.882812 0.578125 -1.671875 0.578125 -1.390625 C 0.578125 -1.117188 0.703125 -0.847656 0.953125 -0.578125 C 1.203125 -0.316406 1.5625 -0.1875 2.03125 -0.1875 C 2.5 -0.1875 2.9375 -0.351562 3.34375 -0.6875 C 3.757812 -1.03125 4.039062 -1.328125 4.1875 -1.578125 C 4.332031 -1.835938 4.648438 -2.550781 5.140625 -3.71875 C 5.628906 -4.894531 6.132812 -5.820312 6.65625 -6.5 L 6.71875 -6.625 C 6.71875 -6.644531 6.6875 -6.65625 6.625 -6.65625 C 6.457031 -6.65625 5.050781 -5.832031 2.40625 -4.1875 Z M 1.109375 -3.359375 "/></g></g></g><g fill="#012649" fill-opacity="1"><g transform="translate(122.597804, 34.606209)"><g><path d="M 5.734375 -3.390625 C 2.421875 -1.128906 0.304688 0 -0.609375 0 C -0.835938 0 -0.953125 -0.0703125 -0.953125 -0.21875 C -0.953125 -0.8125 -0.191406 -2.15625 1.328125 -4.25 C 2.847656 -6.34375 4.601562 -8.5625 6.59375 -10.90625 C 4.5625 -10.945312 3.3125 -10.96875 2.84375 -10.96875 C 2.382812 -10.96875 2.15625 -11.085938 2.15625 -11.328125 C 2.15625 -11.410156 2.25 -11.453125 2.4375 -11.453125 L 6.984375 -11.359375 C 9.554688 -14.378906 10.984375 -15.890625 11.265625 -15.890625 C 11.828125 -15.890625 12.109375 -15.800781 12.109375 -15.625 C 12.109375 -15.445312 10.9375 -14.015625 8.59375 -11.328125 L 13.921875 -11.234375 C 14.203125 -11.234375 14.34375 -11.191406 14.34375 -11.109375 C 14.34375 -11.035156 14.296875 -10.988281 14.203125 -10.96875 C 14.078125 -10.90625 13.03125 -10.875 11.0625 -10.875 L 8.21875 -10.875 C 6.84375 -9.3125 5.835938 -8.175781 5.203125 -7.46875 C 4.566406 -6.757812 3.742188 -5.8125 2.734375 -4.625 C 0.847656 -2.425781 -0.09375 -1.117188 -0.09375 -0.703125 C -0.09375 -0.617188 -0.015625 -0.578125 0.140625 -0.578125 C 0.296875 -0.578125 0.828125 -0.820312 1.734375 -1.3125 C 2.648438 -1.8125 3.34375 -2.226562 3.8125 -2.5625 L 5.703125 -3.75 Z M 5.734375 -3.390625 "/></g></g></g></svg>