<?xml version="1.0" encoding="UTF-8"?>
<svg id="Capa_1" data-name="Capa 1" xmlns="http://www.w3.org/2000/svg" viewBox="0 0 1200 1200">
  <defs>
    <style>
      .cls-1 {
        fill: #fff;
      }
    </style>
  </defs>
  <path class="cls-1" d="m972.21,840.9c-.55.55-1.14.92-1.8,1.14-.65.22-1.41.33-2.28.33-1.25,0-2.22-.22-2.91-.67-.69-.44-1.11-1.2-1.27-2.27l-.41-2.71c-.18-1.27-.42-2.23-.75-2.88-.32-.65-.79-.98-1.43-.98h-1.22v6.25c0,.69.05,1.18.15,1.49.1.31.28.52.53.63.25.11.67.18,1.25.22v.54c-1.05-.05-2.57-.08-4.54-.08-2.19,0-3.8.02-4.84.08v-.54c.58-.04,1-.11,1.26-.22.26-.11.44-.32.53-.63s.14-.81.14-1.49v-13.48c0-.69-.05-1.19-.15-1.5-.1-.3-.27-.52-.53-.62-.25-.11-.67-.18-1.25-.22v-.55c1.03.05,2.59.08,4.67.08l3.12-.02c.36-.02.78-.02,1.25-.02,2.75,0,4.81.39,6.15,1.17,1.35.78,2.03,1.97,2.03,3.56,0,1.36-.51,2.52-1.52,3.48-1.01.96-2.72,1.55-5.11,1.77,1.85.13,3.24.47,4.19,1.04.94.57,1.52,1.41,1.74,2.52l.57,2.82c.13.67.29,1.13.47,1.38.18.26.43.38.76.38s.61-.12.84-.35l.35.35Zm-11.53-17.41c-.21.13-.35.35-.42.68s-.11.81-.11,1.47v6.68h.73c1.29,0,2.16-.39,2.63-1.18s.71-1.89.71-3.32-.21-2.61-.61-3.37c-.41-.77-1.07-1.14-2-1.14-.42,0-.73.06-.94.19"/>
  <path class="cls-1" d="m962.52,854.26c-11.67,0-21.16-9.5-21.16-21.16s9.5-21.16,21.16-21.16,21.16,9.49,21.16,21.16-9.5,21.16-21.16,21.16m0-38.29c-9.45,0-17.13,7.68-17.13,17.13s7.68,17.13,17.13,17.13,17.13-7.69,17.13-17.13-7.68-17.13-17.13-17.13"/>
  <path class="cls-1" d="m294.42,846.1c.46,1.18,11.79,29.28,52.67,68.04,23.75,22.52,52.73,44.1,86.1,64.12,41.58,24.94,97.48,49.84,151.76,69.49l.05-2.63.05,2.63c54.28-19.65,107.68-44.55,149.27-69.49,33.38-20.02,62.34-41.6,86.1-64.12,40.88-38.76,52.21-66.86,52.67-68.04l.42-1.07.42-552.78h-12.48s-.41,550.36-.41,550.36c-2.35,5.14-14.93,30.3-50.08,63.42-36.36,34.25-105.7,84.67-225.96,128.24-120.26-43.58-192.1-93.99-228.46-128.24-35.15-33.12-47.74-58.28-50.08-63.42l-.41-551.19h-12.48s.41,553.62.41,553.62l.42,1.07Z"/>
  <polygon class="cls-1" points="848.98 767.35 848.98 644.2 585.22 386.27 521.58 447.7 848.98 767.35"/>
  <path class="cls-1" d="m410.9,553.1c12.48,11.65,361.65,353.98,369.5,361.65,23.99-21.27,45.11-45.75,62.64-72.61-124.39-122.29-240.35-233.32-364.74-355.61-18,17.29-67.4,66.57-67.4,66.57"/>
  <path class="cls-1" d="m333.35,674.92c106.99,104.12,213.97,208.24,320.96,312.36,30.58-10.42,50.29-19.22,74.86-40.2-124.72-121.76-236.4-230.2-361.12-351.96.27.26-50.76,47.38-50.76,49.09,0,10.81.83,4.96.83,14.97,0,.83,10.95,11.57,15.22,15.73"/>
  <path class="cls-1" d="m373.04,897.98c70.72,62.4,122.21,83.73,200.44,116.46,3.53,1.47,7.46,2.88,11.33,3.54.26.05.52.06.77.05v-16.49c-.12-.12-.24-.25-.36-.37-32.9-31.82-116.7-114.17-126.11-123.39-35.58-34.88-71.16-69.75-106.75-104.63-8.89-8.72-17.79-17.44-26.68-26.16-3.37-3.31-5.61-6.91-7.2-5.82-.61.42-1.13,1.53-1.58,3.62-1.06,4.9-3.99,63.22,2.48,85.7,6.16,21.41,36.96,52.76,53.67,67.51"/>
  <path class="cls-1" d="m852.31,292.24c-15.81-1.66-66.08-5.43-100.68.83-96.52,17.47-150.05,55.44-149.77,55.75.94.98,249.62,242.96,249.62,242.96l.83-299.54Z"/>
  <path class="cls-1" d="m568.58,348.82c.28-.3-82.37-49.09-150.6-55.75-34.99-3.41-84.87-2.49-100.68-.83l.83,299.54s249.5-241.98,250.45-242.96m-147.48-13.06c.01-.18.03-.35.05-.53.02-.38.06-.75.1-1.12.02-.21.05-.4.09-.61.05-.35.1-.69.16-1.03.04-.21.07-.41.12-.61.07-.35.15-.69.23-1.03.04-.19.09-.38.14-.56.09-.36.2-.72.3-1.07.05-.16.1-.33.15-.49.13-.42.29-.83.44-1.24.04-.09.07-.19.1-.28.4-1.03.86-2.02,1.37-2.99,0-.02.02-.04.03-.06,5.31,9.98,16.41,16.85,29.25,16.85s23.94-6.87,29.25-16.85c0,.02.02.04.03.06.51.97.97,1.96,1.37,2.99.03.09.07.19.1.28.16.41.3.82.44,1.24.05.16.1.32.15.48.11.36.21.71.31,1.07.05.19.09.38.14.56.08.34.16.68.22,1.03.04.2.09.4.12.6.06.35.12.69.16,1.04.02.2.05.39.08.6.05.37.08.75.11,1.13.01.18.03.35.04.53.03.55.05,1.11.05,1.67,0,4.68-1.16,9.11-3.22,13.06-.23.44-.47.87-.72,1.3-2.26,3.85-5.39,7.18-9.16,9.79-5.44,3.76-12.18,5.98-19.5,5.98-17.99,0-32.58-13.49-32.58-30.13,0-.56.02-1.12.05-1.67m0,63.56c.01-.18.03-.35.05-.53.02-.38.06-.75.1-1.13.02-.2.05-.4.09-.6.05-.35.1-.7.16-1.04.04-.2.07-.41.12-.61.07-.34.15-.69.23-1.03.04-.19.09-.38.14-.56.09-.36.2-.72.3-1.07.05-.16.1-.33.15-.49.13-.42.29-.83.44-1.23.04-.1.07-.19.1-.29.4-1.02.86-2.02,1.37-2.98,0-.02.02-.04.03-.06,5.31,9.98,16.41,16.85,29.25,16.85s23.94-6.87,29.25-16.85c0,.02.02.04.03.06.51.96.97,1.97,1.37,2.98.03.1.07.19.1.28.16.41.3.83.44,1.24.05.16.1.32.15.49.11.35.21.71.31,1.07.05.19.09.38.14.56.08.34.16.69.22,1.03.04.2.09.4.12.6.06.34.12.69.16,1.04.02.2.05.4.08.6.05.38.08.75.11,1.13.01.17.03.35.04.52.03.55.05,1.11.05,1.67,0,4.68-1.16,9.11-3.22,13.06-.23.44-.47.87-.72,1.3-2.26,3.84-5.39,7.18-9.16,9.78-5.44,3.76-12.18,5.99-19.5,5.99-17.99,0-32.58-13.49-32.58-30.13,0-.56.02-1.12.05-1.67m-86.21-61.07c.01-.18.03-.35.04-.53.03-.38.06-.75.11-1.13.02-.2.05-.4.08-.6.05-.35.1-.69.16-1.04.04-.2.08-.4.12-.61.07-.34.14-.69.22-1.03.05-.19.09-.38.14-.56.1-.36.2-.72.31-1.07.05-.16.1-.33.15-.49.14-.41.29-.83.44-1.24.03-.09.07-.18.1-.28.4-1.02.86-2.02,1.37-2.99.01-.02.02-.04.03-.05,5.31,9.98,16.41,16.84,29.25,16.84s23.94-6.87,29.25-16.84c.01.02.02.04.03.05.52.97.97,1.97,1.37,2.99.04.1.07.19.1.28.15.41.3.83.44,1.24.05.16.1.32.15.49.11.35.21.71.31,1.07.05.19.1.38.14.56.08.34.16.69.23,1.03.04.2.08.4.12.6.06.34.12.69.16,1.04.03.2.06.4.08.6.04.38.07.75.1,1.13.02.17.04.35.04.52.04.55.05,1.11.05,1.67,0,4.68-1.15,9.11-3.21,13.06-.23.44-.47.87-.72,1.3-2.51,4.27-6.1,7.91-10.43,10.62-.87.54-1.77,1.04-2.69,1.51-.92.47-1.87.89-2.85,1.27-3.9,1.53-8.19,2.37-12.68,2.37-2.25,0-4.45-.21-6.56-.61-2.65-.5-5.19-1.31-7.56-2.36-1.9-.84-3.7-1.86-5.37-3.02-3.34-2.31-6.19-5.21-8.37-8.52-.82-1.24-1.54-2.54-2.16-3.9-.41-.9-.78-1.83-1.09-2.77-.95-2.83-1.47-5.84-1.47-8.96,0-.56.02-1.12.05-1.67m0,63.56c.01-.18.03-.35.04-.53.03-.38.06-.75.11-1.13.02-.2.05-.4.08-.6.05-.35.1-.69.16-1.04.04-.2.08-.4.12-.6.07-.35.14-.69.22-1.03.05-.19.09-.38.14-.56.1-.36.2-.72.31-1.07.05-.16.1-.32.15-.48.14-.42.29-.83.44-1.24.03-.1.07-.19.1-.28.4-1.03.86-2.02,1.37-2.99.01-.02.02-.04.03-.05,5.31,9.98,16.41,16.85,29.25,16.85s23.94-6.87,29.25-16.85c.01.02.02.04.03.05.52.97.97,1.97,1.37,2.99.04.09.07.18.1.28.15.41.3.82.44,1.24.05.16.1.32.15.48.11.35.21.71.31,1.07.05.18.1.38.14.56.08.34.16.68.23,1.03.04.2.08.4.12.6.06.35.12.69.16,1.04.03.2.06.4.08.6.04.38.07.76.1,1.13.02.18.04.35.04.52.04.56.05,1.12.05,1.67,0,4.68-1.15,9.11-3.21,13.06-.23.44-.47.87-.72,1.3-2.51,4.27-6.1,7.92-10.43,10.62-.87.54-1.77,1.04-2.69,1.51-.92.46-1.87.89-2.85,1.27-3.9,1.52-8.19,2.37-12.68,2.37-2.25,0-4.45-.21-6.56-.61-2.65-.5-5.19-1.3-7.56-2.36-1.9-.84-3.7-1.86-5.37-3.01-3.34-2.32-6.19-5.21-8.37-8.53-.82-1.24-1.54-2.54-2.16-3.9-.41-.9-.78-1.83-1.09-2.77-.95-2.83-1.47-5.84-1.47-8.96,0-.56.02-1.12.05-1.67m0,62.75c.01-.18.03-.35.04-.53.03-.38.06-.75.11-1.13.02-.2.05-.4.08-.6.05-.35.1-.7.16-1.04.04-.2.08-.4.12-.61.07-.34.14-.69.22-1.03.05-.19.09-.38.14-.56.1-.36.2-.72.31-1.07.05-.16.1-.33.15-.49.14-.41.29-.83.44-1.24.03-.09.07-.19.1-.28.4-1.02.86-2.02,1.37-2.99.01-.02.02-.04.03-.05,5.31,9.98,16.41,16.84,29.25,16.84s23.94-6.87,29.25-16.84c.01.02.02.04.03.05.52.97.97,1.97,1.37,2.99.04.09.07.19.1.28.15.41.3.83.44,1.24.05.16.1.32.15.49.11.35.21.71.31,1.07.05.19.1.38.14.56.08.34.16.69.23,1.03.04.2.08.39.12.6.06.34.12.69.16,1.04.03.2.06.4.08.6.04.38.07.75.1,1.13.02.17.04.35.04.52.04.55.05,1.11.05,1.67,0,4.68-1.15,9.11-3.21,13.06-.23.44-.47.87-.72,1.3-2.51,4.27-6.1,7.91-10.43,10.62-.87.54-1.77,1.04-2.69,1.51-.92.47-1.87.89-2.85,1.27-3.9,1.53-8.19,2.37-12.68,2.37-2.25,0-4.45-.21-6.56-.61-2.65-.5-5.19-1.31-7.56-2.36-1.9-.84-3.7-1.86-5.37-3.02-3.34-2.31-6.19-5.21-8.37-8.52-.82-1.24-1.54-2.54-2.16-3.9-.41-.9-.78-1.83-1.09-2.77-.95-2.83-1.47-5.84-1.47-8.96,0-.56.02-1.12.05-1.67"/>
  <rect class="cls-1" x="248.67" y="222.5" width="669.37" height="30.47"/>
  <rect class="cls-1" x="249.92" y="146.1" width="40.06" height="66.34"/>
  <rect class="cls-1" x="368.62" y="146.1" width="40.06" height="66.34"/>
  <rect class="cls-1" x="499.81" y="146.1" width="40.06" height="66.34"/>
  <rect class="cls-1" x="630.99" y="146.1" width="40.06" height="66.34"/>
  <rect class="cls-1" x="762.17" y="146.1" width="40.06" height="66.34"/>
  <rect class="cls-1" x="878.38" y="146.1" width="40.06" height="66.34"/>
  <path class="cls-1" d="m919.63,261.26H249.07s-.79,371.29,2.21,522.73h-.13v58.96c0,1.41.21,2.82.62,4.17.5,1.6,12.66,39.86,59.4,88.42,26.95,28,60.07,53.95,98.47,77.12,47.15,28.45,102.46,52.8,164.42,72.39,1.29.41,2.62.73,3.95.97l7.2,1.67,6.29-2c62.76-19.21,118.73-43.16,166.37-71.2,38.4-22.6,71.53-47.9,98.48-75.21,46.73-47.36,58.9-84.67,59.4-86.23.41-1.32.62-2.69.62-4.07v-54.48c3.31-144.82,3.26-533.24,3.26-533.24m-31.13,530.22h-.42v55.15c-6.17,15.9-58.63,138.01-302.87,212.77-135.5-42.53-212.19-100.93-252.05-141.82-37.44-38.4-50.85-69.55-53.73-77.06v-56.52h-.06c-.02-145.59-.21-493.58-.22-505.21h609.57c0,11.84-.21,371.96-.22,512.69"/>
</svg>